<?xml version="1.0" encoding="utf-8"?>
<!-- Generator: Adobe Illustrator 23.0.1, SVG Export Plug-In . SVG Version: 6.00 Build 0)  -->
<svg version="1.1" id="Camada_1" xmlns="http://www.w3.org/2000/svg" xmlns:xlink="http://www.w3.org/1999/xlink" x="0px" y="0px"
	 viewBox="0 0 154.59 60.69" enable-background="new 0 0 154.59 60.69" xml:space="preserve">
<g>
	<g>
		<g>
			<g>
				<path d="M45.57,51.95c3,0.43,7.76,0.98,11.32,0.98c3.64,0,5.71-1.72,6.2-5.15l0.07-0.51c-1.65,0.31-3.54,0.49-5.15,0.49
					c-8.14,0-12.23-2.73-12.23-10.76c0-1.59,0.16-3.38,0.49-5.41c1.95-12.37,7.36-16.19,17.76-16.19c4.41,0,9.3,0.94,12.52,3.17
					c-0.16,2.17-4.65,31.05-4.65,31.05c-1.36,8.61-7.78,10.72-14.99,10.72c-4.41,0-9.26-0.72-12.43-1.32c-0.01,0-0.02,0-0.03-0.01
					L45.57,51.95z M54.98,35.44c0,2.91,1.16,4.9,5.84,4.9c1.09,0,2.48-0.2,3.53-0.49c0,0,2.35-15.17,2.42-16.48
					c-0.94-0.4-2.48-0.62-3.91-0.62c-5.59,0-6.82,4.58-7.49,8.83C55.16,32.98,54.98,34.28,54.98,35.44z"/>
			</g>
			<g>
				<path d="M83.72,47.37h-8.89c0,0,4.34-26.95,4.87-29.09c4.1-2.21,9.21-3.12,14.31-3.12c9.03,0,11.28,3.11,11.28,7.89
					c0,1.3-0.18,2.73-0.41,4.25l-3.18,20.08h-8.92l3.07-19.38c0.12-0.86,0.21-1.59,0.21-2.23c0-2.25-1.02-3.19-4.37-3.21
					c-1.37,0-2.93,0.23-3.94,0.62C87.42,24.45,83.72,47.37,83.72,47.37z"/>
			</g>
			<g>
				<path d="M106.38,32.02c1.9-12,6.42-16.57,16.9-16.57c8.59,0,12.18,3.1,12.18,10.73c0,1.7-0.18,3.66-0.53,5.84
					c-1.9,11.97-6.4,16.59-16.92,16.59c-8.56,0-12.17-3.03-12.17-10.7C105.85,36.19,106.04,34.23,106.38,32.02z M119.16,41.05
					c4.21,0,5.57-1.94,6.69-9.03c0.31-1.98,0.49-3.55,0.49-4.8c0-3.21-1.16-4.22-4.19-4.22c-4.19,0-5.53,1.85-6.67,9.03
					c-0.33,2.05-0.51,3.66-0.51,4.91C114.97,40.13,116.15,41.05,119.16,41.05z"/>
			</g>
			<g>
				<path d="M37.59,15.56h9.04l-5.04,31.81h-9.04L37.59,15.56z M47.73,9.13c-0.52,3.29-1.91,4.57-5.55,4.57
					c-3.06,0-4.25-0.89-4.25-3.11c0-0.43,0.05-0.92,0.13-1.46c0.52-3.29,1.92-4.57,5.55-4.57c3.04,0,4.25,0.89,4.25,3.13
					C47.86,8.12,47.81,8.59,47.73,9.13z"/>
			</g>
			<path d="M24.54,9.3c3.52,0,7.27,0.58,10.19,1.09l1.35-8.51C32.95,1.18,28.37,0.5,23.76,0.5C13.13,0.5,6.72,3.8,5.09,14.12
				c-0.18,1.1-0.26,2.07-0.26,2.99c0,6.51,4.24,8.94,11.03,11.21c3.6,1.19,5.87,2.11,5.87,4.8c0,0.3-0.02,0.6-0.08,0.94
				c-0.6,3.72-3.09,4.82-7.45,4.82c-3.52,0-8.76-0.6-11.95-1.1l0,0l-1.39,8.75c3.44,0.75,7.52,1.33,12.38,1.33
				c10.89,0,17.74-3.76,19.39-14.24c0.2-1.29,0.32-2.47,0.32-3.54c0-5.87-3.13-8.86-10.51-10.97c-4.28-1.23-6.71-1.85-6.71-4.72
				c0-0.32,0.02-0.64,0.08-1.02C16.44,9.44,21.1,9.3,24.54,9.3z"/>
			<g>
				<path fill="#971720" d="M138.48,18.62c2.26-1.92,3.7-4.78,3.7-7.99c0-0.88-0.11-1.73-0.31-2.55c-5.37-3.9-12.85-6.21-12.85-6.21
					l-1.35,8.51C127.67,10.39,135.8,11.65,138.48,18.62z"/>
				<linearGradient id="SVGID_1_" gradientUnits="userSpaceOnUse" x1="135.202" y1="25.2764" x2="147.1565" y2="25.2764">
					<stop  offset="0" style="stop-color:#801119"/>
					<stop  offset="0.0189" style="stop-color:#84121A"/>
					<stop  offset="0.2054" style="stop-color:#A71822"/>
					<stop  offset="0.3958" style="stop-color:#C51A26"/>
					<stop  offset="0.5895" style="stop-color:#DB1B2A"/>
					<stop  offset="0.7883" style="stop-color:#EA1C2B"/>
					<stop  offset="1" style="stop-color:#F31B2C"/>
				</linearGradient>
				<path fill="url(#SVGID_1_)" d="M147.11,14.93c-0.47-2.61-2.6-4.93-5.24-6.85c0.2,0.82,0.31,1.67,0.31,2.55
					c0,3.2-1.44,6.06-3.7,7.99c0.08,0.21,0.16,0.43,0.23,0.65c2.14,6.73-3.51,23.2-3.51,23.2S147.99,19.82,147.11,14.93z"/>
			</g>
		</g>
		<g>
			<path d="M74.73,56.94c0-0.11,0.04-0.21,0.12-0.31c0.08-0.1,0.16-0.15,0.26-0.15c0.06,0,0.14,0.04,0.23,0.13
				c0.09,0.08,0.19,0.18,0.29,0.28c0.1,0.1,0.26,0.2,0.47,0.28c0.22,0.08,0.46,0.13,0.73,0.13c0.44,0,0.78-0.11,1.03-0.32
				c0.25-0.21,0.37-0.52,0.37-0.93c0-0.37-0.11-0.67-0.34-0.9c-0.23-0.23-0.51-0.41-0.83-0.53c-0.32-0.12-0.65-0.25-0.97-0.39
				c-0.33-0.14-0.6-0.35-0.83-0.64c-0.23-0.29-0.34-0.65-0.34-1.11c0-0.35,0.07-0.66,0.2-0.92c0.13-0.26,0.31-0.46,0.54-0.59
				c0.23-0.13,0.46-0.23,0.7-0.29c0.24-0.06,0.5-0.09,0.78-0.09c0.42,0,0.82,0.06,1.2,0.18c0.38,0.12,0.57,0.29,0.57,0.5
				c0,0.09-0.03,0.2-0.1,0.3c-0.07,0.11-0.15,0.16-0.26,0.16c-0.03,0-0.18-0.06-0.46-0.19c-0.28-0.13-0.6-0.19-0.94-0.19
				c-0.41,0-0.74,0.08-0.99,0.25c-0.25,0.17-0.38,0.43-0.38,0.8c0,0.31,0.11,0.56,0.34,0.75c0.23,0.19,0.51,0.35,0.83,0.46
				c0.33,0.11,0.65,0.25,0.97,0.39c0.32,0.15,0.6,0.39,0.83,0.71c0.23,0.33,0.34,0.74,0.34,1.25c0,0.69-0.2,1.22-0.61,1.57
				c-0.4,0.35-0.94,0.53-1.61,0.53c-0.6,0-1.11-0.13-1.52-0.38C74.94,57.43,74.73,57.19,74.73,56.94z"/>
			<path d="M79.63,56.1v-1.03c0-0.52,0.2-0.97,0.59-1.36c0.39-0.39,0.86-0.58,1.4-0.58c0.54,0,1.01,0.19,1.4,0.58
				c0.4,0.38,0.6,0.84,0.6,1.36v1.03c0,0.51-0.2,0.97-0.6,1.36c-0.4,0.4-0.87,0.6-1.4,0.6c-0.53,0-1-0.2-1.39-0.59
				C79.83,57.08,79.63,56.62,79.63,56.1z M80.47,56.1c0,0.31,0.11,0.59,0.34,0.83s0.5,0.36,0.81,0.36c0.32,0,0.59-0.12,0.82-0.37
				c0.23-0.24,0.34-0.52,0.34-0.83v-1.02c0-0.3-0.11-0.57-0.34-0.81c-0.23-0.24-0.5-0.36-0.82-0.36c-0.32,0-0.59,0.12-0.81,0.36
				c-0.23,0.24-0.34,0.51-0.34,0.81V56.1z"/>
			<path d="M84.47,57.68V50.6c0-0.09,0.04-0.16,0.12-0.21c0.08-0.05,0.18-0.08,0.3-0.08c0.12,0,0.22,0.03,0.3,0.08
				c0.08,0.05,0.12,0.12,0.12,0.21v7.08c0,0.07-0.04,0.14-0.13,0.21c-0.08,0.06-0.18,0.1-0.3,0.1s-0.21-0.03-0.29-0.09
				C84.51,57.83,84.47,57.76,84.47,57.68z"/>
			<path d="M86.3,56.12V53.5c0-0.08,0.04-0.15,0.13-0.21c0.08-0.06,0.18-0.09,0.3-0.09c0.11,0,0.2,0.03,0.29,0.1
				c0.08,0.06,0.13,0.13,0.13,0.21v2.62c0,0.3,0.11,0.57,0.34,0.82c0.23,0.24,0.5,0.36,0.82,0.36c0.31,0,0.58-0.12,0.81-0.36
				c0.23-0.24,0.34-0.51,0.34-0.82v-2.63c0-0.07,0.04-0.14,0.13-0.2c0.08-0.06,0.18-0.09,0.3-0.09c0.12,0,0.22,0.03,0.3,0.09
				c0.08,0.06,0.12,0.13,0.12,0.21v2.64c0,0.52-0.2,0.97-0.59,1.36c-0.39,0.39-0.86,0.58-1.4,0.58c-0.55,0-1.02-0.19-1.41-0.58
				C86.49,57.09,86.3,56.64,86.3,56.12z"/>
			<path d="M91.02,56.1v-1.01c0-0.58,0.17-1.05,0.51-1.41c0.34-0.36,0.84-0.55,1.5-0.55c0.42,0,0.77,0.07,1.06,0.22
				c0.29,0.15,0.43,0.31,0.43,0.47c0,0.09-0.04,0.19-0.11,0.28c-0.07,0.09-0.15,0.14-0.25,0.14c-0.03,0-0.14-0.06-0.35-0.17
				c-0.21-0.11-0.45-0.17-0.72-0.17c-0.4,0-0.71,0.1-0.92,0.31c-0.21,0.21-0.31,0.5-0.31,0.88v1c0,0.79,0.41,1.19,1.24,1.19
				c0.28,0,0.53-0.06,0.74-0.18c0.21-0.12,0.33-0.18,0.36-0.18c0.11,0,0.2,0.04,0.27,0.13c0.07,0.09,0.11,0.18,0.11,0.27
				c0,0.16-0.13,0.31-0.38,0.46c-0.26,0.15-0.58,0.24-0.96,0.26l-0.13,0.52c0.32,0.01,0.57,0.08,0.73,0.22
				c0.16,0.14,0.24,0.31,0.24,0.52c0,0.22-0.08,0.41-0.24,0.57c-0.16,0.16-0.39,0.25-0.7,0.25c-0.18,0-0.36-0.02-0.54-0.07
				c-0.18-0.05-0.27-0.11-0.27-0.2c0-0.05,0.02-0.11,0.05-0.18c0.03-0.07,0.08-0.11,0.13-0.11c0.01,0,0.08,0.02,0.2,0.07
				c0.12,0.05,0.24,0.07,0.37,0.07c0.35,0,0.53-0.12,0.53-0.37c0-0.24-0.2-0.38-0.6-0.41l-0.43-0.03l0.22-0.84
				c-0.59-0.04-1.03-0.24-1.32-0.6C91.16,57.1,91.02,56.65,91.02,56.1z"/>
			<path d="M94.91,56.1v-1.03c0-0.52,0.2-0.97,0.59-1.36c0.39-0.39,0.86-0.58,1.4-0.58c0.54,0,1.01,0.19,1.4,0.58
				c0.4,0.38,0.6,0.84,0.6,1.36v1.03c0,0.51-0.2,0.97-0.6,1.36c-0.4,0.4-0.87,0.6-1.4,0.6c-0.53,0-1-0.2-1.39-0.59
				C95.11,57.08,94.91,56.62,94.91,56.1z M95.3,51.58c0-0.18,0.1-0.32,0.3-0.42c0.2-0.1,0.39-0.15,0.58-0.15
				c0.18,0,0.41,0.05,0.69,0.16c0.28,0.1,0.5,0.16,0.68,0.16c0.17,0,0.32-0.05,0.46-0.16c0.14-0.1,0.23-0.16,0.27-0.16
				c0.07,0,0.13,0.04,0.18,0.11c0.04,0.07,0.07,0.14,0.07,0.21c0,0.2-0.09,0.34-0.28,0.43c-0.19,0.09-0.38,0.14-0.57,0.14
				c-0.2,0-0.44-0.05-0.71-0.16c-0.27-0.1-0.49-0.16-0.67-0.16c-0.17,0-0.33,0.05-0.48,0.15s-0.25,0.15-0.29,0.15
				c-0.07,0-0.13-0.03-0.17-0.1C95.32,51.71,95.3,51.65,95.3,51.58z M95.75,56.1c0,0.31,0.11,0.59,0.34,0.83
				c0.23,0.24,0.5,0.36,0.81,0.36c0.32,0,0.59-0.12,0.82-0.37c0.23-0.24,0.34-0.52,0.34-0.83v-1.02c0-0.3-0.11-0.57-0.34-0.81
				c-0.23-0.24-0.5-0.36-0.82-0.36c-0.32,0-0.59,0.12-0.81,0.36c-0.23,0.24-0.34,0.51-0.34,0.81V56.1z"/>
			<path d="M99.48,56.1v-1.06c0-0.52,0.2-0.97,0.59-1.34c0.39-0.38,0.87-0.57,1.42-0.57c0.53,0,0.98,0.18,1.36,0.53
				c0.38,0.35,0.58,0.79,0.58,1.32c0,0.2-0.02,0.36-0.07,0.48c-0.05,0.12-0.12,0.2-0.22,0.26c-0.1,0.05-0.19,0.08-0.27,0.1
				c-0.08,0.01-0.2,0.02-0.34,0.02h-2.21v0.3c0,0.37,0.13,0.67,0.4,0.89c0.27,0.22,0.61,0.33,1.04,0.33c0.22,0,0.42-0.03,0.58-0.1
				c0.17-0.07,0.3-0.13,0.4-0.2c0.1-0.06,0.18-0.1,0.24-0.1c0.09,0,0.17,0.04,0.24,0.13c0.07,0.08,0.1,0.17,0.1,0.26
				c0,0.16-0.15,0.31-0.46,0.47c-0.31,0.16-0.69,0.24-1.14,0.24c-0.66,0-1.2-0.18-1.62-0.54C99.69,57.16,99.48,56.69,99.48,56.1z
				 M100.32,55.25h1.87c0.17,0,0.29-0.02,0.35-0.07c0.06-0.04,0.09-0.13,0.09-0.26c0-0.3-0.11-0.57-0.33-0.8
				c-0.22-0.23-0.5-0.34-0.82-0.34c-0.32,0-0.59,0.11-0.82,0.32c-0.23,0.21-0.34,0.47-0.34,0.78V55.25z"/>
			<path d="M103.81,57.29c0-0.09,0.03-0.17,0.09-0.26c0.06-0.08,0.13-0.13,0.21-0.13c0.05,0,0.13,0.04,0.23,0.13
				c0.1,0.08,0.25,0.17,0.43,0.25c0.19,0.08,0.41,0.12,0.67,0.12c0.34,0,0.58-0.06,0.73-0.18c0.15-0.12,0.23-0.28,0.23-0.46
				c0-0.22-0.08-0.4-0.25-0.54c-0.17-0.13-0.37-0.23-0.62-0.3c-0.24-0.07-0.48-0.14-0.73-0.22c-0.24-0.08-0.45-0.22-0.62-0.41
				c-0.17-0.19-0.25-0.44-0.25-0.76c0-0.38,0.14-0.71,0.41-0.99c0.27-0.28,0.69-0.42,1.25-0.42c0.36,0,0.68,0.05,0.98,0.16
				c0.3,0.11,0.44,0.23,0.44,0.37c0,0.08-0.03,0.17-0.1,0.27c-0.06,0.1-0.14,0.15-0.24,0.15c-0.03,0-0.16-0.05-0.39-0.15
				c-0.23-0.1-0.46-0.15-0.69-0.15c-0.31,0-0.54,0.07-0.69,0.22c-0.15,0.15-0.23,0.31-0.23,0.5c0,0.19,0.08,0.34,0.25,0.45
				c0.17,0.11,0.38,0.19,0.62,0.26c0.25,0.06,0.49,0.14,0.73,0.22c0.24,0.09,0.45,0.24,0.62,0.45c0.17,0.21,0.25,0.49,0.25,0.83
				c0,0.41-0.15,0.74-0.44,0.98c-0.3,0.24-0.71,0.36-1.24,0.36c-0.46,0-0.85-0.08-1.17-0.25C103.98,57.65,103.81,57.48,103.81,57.29
				z"/>
			<path d="M109.16,50.94c0-0.09,0.06-0.18,0.17-0.24c0.11-0.07,0.23-0.1,0.35-0.1c0.17,0,0.27,0.06,0.31,0.19l1.71,6l0.96-3.7
				c0.05-0.18,0.19-0.26,0.44-0.26c0.23,0,0.38,0.09,0.42,0.26l0.97,3.7l1.7-6c0.04-0.13,0.15-0.19,0.33-0.19
				c0.12,0,0.24,0.03,0.35,0.1c0.11,0.07,0.16,0.15,0.16,0.24c0,0.04,0,0.07-0.01,0.09l-1.99,6.72c-0.06,0.2-0.24,0.29-0.53,0.29
				c-0.31,0-0.48-0.1-0.53-0.29l-0.86-3.34l-0.88,3.33c-0.05,0.2-0.23,0.29-0.51,0.29c-0.29,0-0.46-0.1-0.52-0.29l-2-6.72
				C109.16,50.99,109.16,50.96,109.16,50.94z"/>
			<path d="M116.87,56.1v-1.06c0-0.52,0.2-0.97,0.59-1.34c0.39-0.38,0.87-0.57,1.42-0.57c0.53,0,0.98,0.18,1.36,0.53
				c0.38,0.35,0.58,0.79,0.58,1.32c0,0.2-0.02,0.36-0.07,0.48c-0.05,0.12-0.12,0.2-0.22,0.26c-0.1,0.05-0.19,0.08-0.27,0.1
				c-0.08,0.01-0.2,0.02-0.34,0.02h-2.21v0.3c0,0.37,0.13,0.67,0.4,0.89c0.27,0.22,0.61,0.33,1.04,0.33c0.22,0,0.42-0.03,0.58-0.1
				c0.17-0.07,0.3-0.13,0.4-0.2c0.1-0.06,0.18-0.1,0.24-0.1c0.09,0,0.17,0.04,0.24,0.13c0.07,0.08,0.1,0.17,0.1,0.26
				c0,0.16-0.15,0.31-0.46,0.47c-0.31,0.16-0.69,0.24-1.14,0.24c-0.66,0-1.2-0.18-1.62-0.54C117.07,57.16,116.87,56.69,116.87,56.1z
				 M117.7,55.25h1.87c0.17,0,0.29-0.02,0.35-0.07c0.06-0.04,0.09-0.13,0.09-0.26c0-0.3-0.11-0.57-0.33-0.8
				c-0.22-0.23-0.5-0.34-0.82-0.34c-0.32,0-0.59,0.11-0.82,0.32c-0.23,0.21-0.34,0.47-0.34,0.78V55.25z"/>
			<path d="M121.5,57.68v-7.07c0-0.09,0.04-0.16,0.12-0.21c0.08-0.05,0.18-0.08,0.3-0.08c0.12,0,0.22,0.03,0.3,0.08
				c0.08,0.05,0.12,0.12,0.12,0.21v3.3c0.12-0.22,0.3-0.4,0.53-0.55c0.23-0.15,0.49-0.23,0.8-0.23c0.49,0,0.92,0.19,1.27,0.57
				c0.36,0.38,0.54,0.84,0.54,1.37v1.03c0,0.51-0.18,0.97-0.54,1.36c-0.36,0.4-0.77,0.6-1.24,0.6c-0.3,0-0.58-0.08-0.84-0.24
				c-0.26-0.16-0.44-0.34-0.56-0.56v0.41c0,0.08-0.04,0.15-0.12,0.22c-0.08,0.06-0.17,0.09-0.27,0.09c-0.11,0-0.21-0.03-0.29-0.09
				C121.54,57.83,121.5,57.76,121.5,57.68z M122.34,56.37c0,0.17,0.12,0.36,0.35,0.59c0.24,0.22,0.5,0.34,0.8,0.34
				c0.3,0,0.57-0.12,0.8-0.37c0.23-0.24,0.34-0.52,0.34-0.83v-1.02c0-0.3-0.11-0.57-0.34-0.81c-0.23-0.24-0.5-0.36-0.81-0.36
				c-0.3,0-0.57,0.11-0.8,0.33c-0.23,0.22-0.34,0.5-0.34,0.85V56.37z"/>
		</g>
	</g>
	<g>
		<g>
			<path d="M150.61,0.34c1.74,0,3.11,1.37,3.11,3.11s-1.37,3.11-3.11,3.11s-3.11-1.37-3.11-3.11S148.87,0.34,150.61,0.34z
				 M150.61,0.98c-1.37,0-2.47,1.1-2.47,2.47s1.1,2.47,2.47,2.47s2.47-1.1,2.47-2.47S151.98,0.98,150.61,0.98z M150.06,5.19h-0.64
				V1.62h1.28c1.01,0,1.37,0.37,1.37,1.01c0,0.46-0.27,0.82-0.73,0.91l0.73,1.55h-0.73l-0.73-1.46h-0.64v1.55H150.06z M150.06,2.17
				v1.01h0.55c0.55,0,0.82-0.18,0.82-0.55s-0.27-0.46-0.82-0.46H150.06z"/>
		</g>
	</g>
</g>
</svg>
